<svg width="621" height="186" viewBox="0 0 621 186" fill="none" xmlns="http://www.w3.org/2000/svg">
<g filter="url(#filter0_f_16_4)">
<path d="M175.464 68.672C175.464 71.168 175.128 73.664 174.456 76.16C173.88 78.656 172.872 80.96 171.432 83.072C169.992 85.088 168.12 86.912 165.816 88.544C163.512 90.08 160.728 91.232 157.464 92V92.864C160.344 93.344 163.08 94.16 165.672 95.312C168.264 96.464 170.52 98.048 172.44 100.064C174.36 102.08 175.848 104.528 176.904 107.408C178.056 110.288 178.632 113.696 178.632 117.632C178.632 122.816 177.528 127.328 175.32 131.168C173.112 134.912 170.136 137.984 166.392 140.384C162.744 142.784 158.568 144.56 153.864 145.712C149.16 146.864 144.312 147.44 139.32 147.44C137.688 147.44 135.576 147.44 132.984 147.44C130.488 147.44 127.752 147.344 124.776 147.152C121.896 147.056 118.92 146.864 115.848 146.576C112.872 146.288 110.136 145.856 107.64 145.28V45.92C109.464 45.632 111.528 45.344 113.832 45.056C116.232 44.768 118.776 44.528 121.464 44.336C124.152 44.144 126.888 44 129.672 43.904C132.552 43.808 135.384 43.76 138.168 43.76C142.872 43.76 147.432 44.144 151.848 44.912C156.36 45.584 160.344 46.832 163.8 48.656C167.352 50.48 170.184 53.024 172.296 56.288C174.408 59.552 175.464 63.68 175.464 68.672ZM139.464 131.168C141.864 131.168 144.168 130.88 146.376 130.304C148.68 129.728 150.696 128.864 152.424 127.712C154.152 126.464 155.544 124.928 156.6 123.104C157.656 121.28 158.184 119.12 158.184 116.624C158.184 113.456 157.56 110.96 156.312 109.136C155.064 107.312 153.432 105.92 151.416 104.96C149.4 103.904 147.144 103.232 144.648 102.944C142.152 102.656 139.656 102.512 137.16 102.512H126.648V130.304C127.128 130.496 127.896 130.64 128.952 130.736C130.008 130.832 131.112 130.928 132.264 131.024C133.512 131.024 134.76 131.072 136.008 131.168C137.352 131.168 138.504 131.168 139.464 131.168ZM132.984 87.536C134.328 87.536 135.864 87.488 137.592 87.392C139.416 87.296 140.904 87.152 142.056 86.96C145.704 85.808 148.824 84.08 151.416 81.776C154.104 79.472 155.448 76.448 155.448 72.704C155.448 70.208 154.968 68.144 154.008 66.512C153.048 64.88 151.752 63.584 150.12 62.624C148.584 61.664 146.808 60.992 144.792 60.608C142.776 60.224 140.664 60.032 138.456 60.032C135.96 60.032 133.656 60.08 131.544 60.176C129.432 60.272 127.8 60.416 126.648 60.608V87.536H132.984ZM193.87 74H212.59V146H193.87V74ZM191.134 53.696C191.134 50.912 192.142 48.56 194.158 46.64C196.27 44.624 199.15 43.616 202.798 43.616C206.446 43.616 209.374 44.624 211.582 46.64C213.886 48.56 215.038 50.912 215.038 53.696C215.038 56.48 213.886 58.832 211.582 60.752C209.374 62.576 206.446 63.488 202.798 63.488C199.15 63.488 196.27 62.576 194.158 60.752C192.142 58.832 191.134 56.48 191.134 53.696ZM291.87 146C291.87 156.464 289.038 164.144 283.374 169.04C277.71 174.032 269.79 176.528 259.614 176.528C252.702 176.528 247.23 176.048 243.198 175.088C239.262 174.128 236.286 173.12 234.27 172.064L238.158 157.232C240.366 158.096 242.91 158.96 245.79 159.824C248.766 160.688 252.414 161.12 256.734 161.12C263.262 161.12 267.678 159.68 269.982 156.8C272.382 154.016 273.582 150.08 273.582 144.992V140.384H273.006C269.646 144.896 263.694 147.152 255.15 147.152C245.838 147.152 238.878 144.272 234.27 138.512C229.758 132.752 227.502 123.728 227.502 111.44C227.502 98.576 230.574 88.832 236.718 82.208C242.862 75.584 251.79 72.272 263.502 72.272C269.646 72.272 275.118 72.704 279.918 73.568C284.814 74.432 288.798 75.44 291.87 76.592V146ZM260.19 132.176C263.838 132.176 266.622 131.36 268.542 129.728C270.558 128.096 272.094 125.648 273.15 122.384V89.984C270.174 88.736 266.478 88.112 262.062 88.112C257.262 88.112 253.518 89.936 250.83 93.584C248.142 97.136 246.798 102.848 246.798 110.72C246.798 117.728 247.95 123.056 250.254 126.704C252.558 130.352 255.87 132.176 260.19 132.176ZM345.015 45.2C347.031 44.912 349.287 44.672 351.783 44.48C354.375 44.288 357.015 44.144 359.703 44.048C362.391 43.952 364.983 43.904 367.479 43.904C370.071 43.808 372.375 43.76 374.391 43.76C383.319 43.76 390.951 45.008 397.287 47.504C403.623 50 408.759 53.504 412.695 58.016C416.631 62.528 419.511 67.904 421.335 74.144C423.159 80.384 424.071 87.248 424.071 94.736C424.071 101.552 423.207 108.128 421.479 114.464C419.751 120.8 416.871 126.416 412.839 131.312C408.807 136.208 403.479 140.144 396.855 143.12C390.327 146.096 382.215 147.584 372.519 147.584C370.983 147.584 368.919 147.536 366.327 147.44C363.831 147.344 361.191 147.2 358.407 147.008C355.719 146.912 353.127 146.768 350.631 146.576C348.135 146.48 346.263 146.336 345.015 146.144V45.2ZM375.975 61.328C373.863 61.328 371.703 61.376 369.495 61.472C367.383 61.568 365.799 61.712 364.743 61.904V129.44C365.127 129.536 365.751 129.632 366.615 129.728C367.575 129.728 368.583 129.776 369.639 129.872C370.695 129.872 371.703 129.92 372.663 130.016C373.623 130.016 374.343 130.016 374.823 130.016C380.391 130.016 384.999 129.056 388.647 127.136C392.391 125.12 395.319 122.48 397.431 119.216C399.639 115.952 401.175 112.208 402.039 107.984C402.903 103.664 403.335 99.248 403.335 94.736C403.335 90.8 402.951 86.864 402.183 82.928C401.415 78.896 399.975 75.296 397.863 72.128C395.847 68.96 393.063 66.368 389.511 64.352C385.959 62.336 381.447 61.328 375.975 61.328ZM495.417 139.808C492.537 142.112 488.601 144.08 483.609 145.712C478.713 147.248 473.481 148.016 467.913 148.016C456.297 148.016 447.801 144.656 442.425 137.936C437.049 131.12 434.361 121.808 434.361 110C434.361 97.328 437.385 87.824 443.433 81.488C449.481 75.152 457.977 71.984 468.921 71.984C472.569 71.984 476.121 72.464 479.577 73.424C483.033 74.384 486.105 75.968 488.793 78.176C491.481 80.384 493.641 83.36 495.273 87.104C496.905 90.848 497.721 95.504 497.721 101.072C497.721 103.088 497.577 105.248 497.289 107.552C497.097 109.856 496.761 112.256 496.281 114.752H453.081C453.369 120.8 454.905 125.36 457.689 128.432C460.569 131.504 465.177 133.04 471.513 133.04C475.449 133.04 478.953 132.464 482.025 131.312C485.193 130.064 487.593 128.816 489.225 127.568L495.417 139.808ZM468.633 86.96C463.737 86.96 460.089 88.448 457.689 91.424C455.385 94.304 453.993 98.192 453.513 103.088H480.297C480.681 97.904 479.865 93.92 477.849 91.136C475.929 88.352 472.857 86.96 468.633 86.96ZM510.51 78.176C514.35 76.448 518.91 75.104 524.19 74.144C529.47 73.088 534.99 72.56 540.75 72.56C545.742 72.56 549.918 73.184 553.278 74.432C556.638 75.584 559.278 77.264 561.198 79.472C563.214 81.68 564.606 84.32 565.374 87.392C566.238 90.464 566.67 93.92 566.67 97.76C566.67 101.984 566.526 106.256 566.238 110.576C565.95 114.8 565.758 118.976 565.662 123.104C565.662 127.232 565.806 131.264 566.094 135.2C566.382 139.04 567.102 142.688 568.254 146.144H552.99L549.966 136.208H549.246C547.326 139.184 544.638 141.776 541.182 143.984C537.822 146.096 533.454 147.152 528.078 147.152C524.718 147.152 521.694 146.672 519.006 145.712C516.318 144.656 514.014 143.216 512.094 141.392C510.174 139.472 508.686 137.264 507.63 134.768C506.574 132.176 506.046 129.296 506.046 126.128C506.046 121.712 507.006 118.016 508.926 115.04C510.942 111.968 513.774 109.52 517.422 107.696C521.166 105.776 525.582 104.48 530.67 103.808C535.854 103.04 541.614 102.8 547.95 103.088C548.622 97.712 548.238 93.872 546.798 91.568C545.358 89.168 542.142 87.968 537.15 87.968C533.406 87.968 529.422 88.352 525.198 89.12C521.07 89.888 517.662 90.896 514.974 92.144L510.51 78.176ZM534.27 131.744C538.014 131.744 540.99 130.928 543.198 129.296C545.406 127.568 547.038 125.744 548.094 123.824V114.464C545.118 114.176 542.238 114.128 539.454 114.32C536.766 114.512 534.366 114.944 532.254 115.616C530.142 116.288 528.462 117.248 527.214 118.496C525.966 119.744 525.342 121.328 525.342 123.248C525.342 125.936 526.11 128.048 527.646 129.584C529.278 131.024 531.486 131.744 534.27 131.744ZM601.676 121.808C601.676 125.168 602.108 127.616 602.972 129.152C603.836 130.688 605.228 131.456 607.148 131.456C608.3 131.456 609.404 131.36 610.46 131.168C611.612 130.976 613.004 130.544 614.636 129.872L616.652 144.56C615.116 145.328 612.764 146.096 609.596 146.864C606.428 147.632 603.164 148.016 599.804 148.016C594.332 148.016 590.156 146.768 587.276 144.272C584.396 141.68 582.956 137.456 582.956 131.6V45.2H601.676V121.808Z" fill="black"/>
</g>
<g filter="url(#filter1_f_16_4)">
<path d="M12.9111 41.9463L15.6533 38.8613L93.1201 88.335V94.8477L15.6533 144.207L12.9111 141.122L58.043 91.5342L12.9111 41.9463Z" fill="black"/>
</g>
<defs>
<filter id="filter0_f_16_4" x="103.64" y="39.616" width="517.012" height="140.912" filterUnits="userSpaceOnUse" color-interpolation-filters="sRGB">
<feFlood flood-opacity="0" result="BackgroundImageFix"/>
<feBlend mode="normal" in="SourceGraphic" in2="BackgroundImageFix" result="shape"/>
<feGaussianBlur stdDeviation="2" result="effect1_foregroundBlur_16_4"/>
</filter>
<filter id="filter1_f_16_4" x="8.91113" y="34.8613" width="88.209" height="113.346" filterUnits="userSpaceOnUse" color-interpolation-filters="sRGB">
<feFlood flood-opacity="0" result="BackgroundImageFix"/>
<feBlend mode="normal" in="SourceGraphic" in2="BackgroundImageFix" result="shape"/>
<feGaussianBlur stdDeviation="2" result="effect1_foregroundBlur_16_4"/>
</filter>
</defs>
</svg>
